<svg width="24" height="24" viewBox="0 0 24 24" fill="none" xmlns="http://www.w3.org/2000/svg">
<path d="M15.381 17.8403C15.642 18.3263 15.46 18.9333 14.974 19.1943C13.978 19.7292 12.977 20.0012 12 20.0012C11.023 20.0012 10.022 19.7302 9.026 19.1943C8.54 18.9323 8.358 18.3263 8.619 17.8403C8.88 17.3542 9.486 17.1702 9.973 17.4332C10.455 17.6932 11.199 18.0012 11.999 18.0012C12.799 18.0012 13.543 17.6922 14.025 17.4332C14.511 17.1702 15.118 17.3542 15.379 17.8403H15.381ZM10.981 13.7063C11.084 13.3542 10.744 13.0323 10.395 13.1453C10.006 13.2713 9.503 13.5013 8.999 13.5013C8.495 13.5013 7.992 13.2713 7.603 13.1453C7.254 13.0323 6.914 13.3542 7.017 13.7063C7.279 14.5983 7.939 15.5013 8.998 15.5013C10.057 15.5013 10.717 14.5983 10.979 13.7063H10.981ZM24 6.90025V15.0013C24 16.5982 22.742 17.8962 21.167 17.9842C19.577 21.6412 15.995 24.0012 12 24.0012C8.005 24.0012 4.423 21.6412 2.833 17.9842C1.258 17.8952 0 16.5982 0 15.0013V6.90025C0 4.76425 0.832 2.75425 2.343 1.24425L3.293 0.29425C3.684 -0.09675 4.316 -0.09675 4.707 0.29425C5.098 0.68525 5.098 1.31725 4.707 1.70825L3.757 2.65825C2.624 3.79125 2 5.29825 2 6.90125V15.0013C2 15.5533 2.449 16.0012 3 16.0012C3.551 16.0012 4 15.5533 4 15.0013C4 15.0013 4.012 6.95825 4.013 6.93425C4.028 6.27225 4.252 5.61425 4.701 5.07825L7.362 2.30725C7.745 1.90825 8.379 1.89725 8.776 2.27925C9.174 2.66225 9.187 3.29525 8.804 3.69325L6.188 6.41425C6.058 6.57125 5.997 6.78325 6 7.00025C6.013 7.22125 6.095 7.49025 6.254 7.66925C6.62 8.07825 7.252 8.11225 7.66 7.74625L10.385 5.23925C11.411 4.29525 12 2.95425 12 1.55925V1.00025C12 0.44825 12.448 0.000250006 13 0.000250006C13.552 0.000250006 14 0.44825 14 1.00025V1.55925C14 2.71125 13.706 3.83425 13.176 4.83525L16.349 7.75525C16.747 8.11225 17.379 8.07825 17.746 7.66925C18.074 7.30225 18.083 6.74125 17.767 6.36425L15.28 3.78025C14.897 3.38225 14.909 2.74925 15.308 2.36625C15.706 1.98425 16.339 1.99525 16.722 2.39425L19.255 5.02825C19.715 5.57525 19.948 6.22825 19.978 6.88225C19.983 6.92225 20.002 15.0002 20.002 15.0002C20.002 15.5522 20.451 16.0002 21.002 16.0002C21.553 16.0002 22.002 15.5522 22.002 15.0002V6.90025C22.002 5.29725 21.378 3.79125 20.245 2.65725L19.295 1.70725C18.904 1.31625 18.904 0.68425 19.295 0.29325C19.686 -0.09775 20.318 -0.09775 20.709 0.29325L21.659 1.24325C23.17 2.75425 24.002 4.76325 24.002 6.90025H24ZM19.223 17.4042C18.485 16.8572 18 15.9872 18 15.0002V9.81425C17.677 9.92825 17.342 9.99925 17.002 9.99925C16.29 9.99925 15.575 9.74825 15.004 9.23625L11.986 6.45925C11.904 6.54325 11.826 6.63125 11.739 6.71125L9.005 9.22725C8.428 9.74425 7.709 9.99825 6.994 9.99825C6.655 9.99825 6.321 9.92725 6 9.81425V15.0013C6 15.9883 5.515 16.8582 4.777 17.4052C6.096 20.2022 8.886 22.0012 12 22.0012C15.114 22.0012 17.904 20.2012 19.223 17.4042ZM16.396 13.1453C16.007 13.2713 15.504 13.5013 15 13.5013C14.496 13.5013 13.993 13.2713 13.604 13.1453C13.255 13.0323 12.915 13.3542 13.018 13.7063C13.28 14.5983 13.94 15.5013 14.999 15.5013C16.058 15.5013 16.718 14.5983 16.98 13.7063C17.083 13.3542 16.743 13.0323 16.394 13.1453H16.396Z" fill="#1C1C1C"/>
</svg>
