<svg width="24" height="24" viewBox="0 0 24 24" fill="none" xmlns="http://www.w3.org/2000/svg">
<path d="M23 21.9982H22V13.9982C21.9984 12.6726 21.4711 11.4018 20.5338 10.4644C19.5964 9.52708 18.3256 8.99979 17 8.9982H13V6.0372C13.4455 5.84278 13.8246 5.52271 14.091 5.11618C14.3574 4.70964 14.4996 4.23425 14.5 3.7482C14.2299 2.46997 13.6213 1.28778 12.738 0.325199C12.6443 0.222729 12.5303 0.140893 12.4032 0.0849042C12.2762 0.0289152 12.1388 0 12 0C11.8612 0 11.7238 0.0289152 11.5968 0.0849042C11.4697 0.140893 11.3557 0.222729 11.262 0.325199C10.3787 1.28778 9.77014 2.46997 9.5 3.7482C9.50044 4.23425 9.64257 4.70964 9.90898 5.11618C10.1754 5.52271 10.5545 5.84278 11 6.0372V8.9982H7C5.6744 8.99979 4.40356 9.52708 3.46622 10.4644C2.52888 11.4018 2.00159 12.6726 2 13.9982V21.9982H1C0.734783 21.9982 0.48043 22.1036 0.292893 22.2911C0.105357 22.4786 0 22.733 0 22.9982C0 23.2634 0.105357 23.5178 0.292893 23.7053C0.48043 23.8928 0.734783 23.9982 1 23.9982H23C23.2652 23.9982 23.5196 23.8928 23.7071 23.7053C23.8946 23.5178 24 23.2634 24 22.9982C24 22.733 23.8946 22.4786 23.7071 22.2911C23.5196 22.1036 23.2652 21.9982 23 21.9982ZM7 10.9982H17C17.7956 10.9982 18.5587 11.3143 19.1213 11.8769C19.6839 12.4395 20 13.2025 20 13.9982V15.9782C19.064 15.8782 18.5 15.2782 18.5 14.9982C18.5 14.733 18.3946 14.4786 18.2071 14.2911C18.0196 14.1036 17.7652 13.9982 17.5 13.9982C17.2348 13.9982 16.9804 14.1036 16.7929 14.2911C16.6054 14.4786 16.5 14.733 16.5 14.9982C16.5 15.3412 15.818 15.9982 14.75 15.9982C13.661 15.9982 13 15.3042 13 14.9982C13 14.733 12.8946 14.4786 12.7071 14.2911C12.5196 14.1036 12.2652 13.9982 12 13.9982C11.7348 13.9982 11.4804 14.1036 11.2929 14.2911C11.1054 14.4786 11 14.733 11 14.9982C11 15.3412 10.318 15.9982 9.25 15.9982C8.161 15.9982 7.5 15.3042 7.5 14.9982C7.5 14.733 7.39464 14.4786 7.20711 14.2911C7.01957 14.1036 6.76522 13.9982 6.5 13.9982C6.23478 13.9982 5.98043 14.1036 5.79289 14.2911C5.60536 14.4786 5.5 14.733 5.5 14.9982C5.5 15.3132 4.921 15.8862 4 15.9792V13.9982C4 13.2025 4.31607 12.4395 4.87868 11.8769C5.44129 11.3143 6.20435 10.9982 7 10.9982ZM4 17.9772C4.91869 17.9364 5.79793 17.5921 6.5 16.9982C7.27136 17.6412 8.24308 17.9946 9.2473 17.9973C10.2515 18.0001 11.2251 17.652 12 17.0132C12.7749 17.652 13.7485 18.0001 14.7527 17.9973C15.7569 17.9946 16.7286 17.6412 17.5 16.9982C18.2022 17.5918 19.0814 17.9357 20 17.9762V21.9982H4V17.9772Z" fill="white"/>
</svg>
