<svg width="24" height="25" viewBox="0 0 24 25" fill="none" xmlns="http://www.w3.org/2000/svg">
<path d="M22.6376 10.4242H21.7867V6.79954H21.9075C22.1077 6.79954 22.27 6.63725 22.27 6.43708C22.27 6.23691 22.1077 6.07462 21.9075 6.07462H21.2896C21.113 3.76472 19.2636 1.91533 16.9537 1.73881V1.36246C16.9537 1.16229 16.7915 1 16.5913 1C16.3911 1 16.2288 1.16229 16.2288 1.36246V1.73876C13.9189 1.91529 12.0695 3.76468 11.893 6.07457H11.2751C11.0749 6.07457 10.9126 6.23686 10.9126 6.43703C10.9126 6.63721 11.0749 6.7995 11.2751 6.7995H11.3959V10.4242H8.85767C9.01627 10.2133 9.13011 9.96696 9.18468 9.69926H9.34195C9.54217 9.69926 9.70441 9.53698 9.70441 9.3368C9.70441 9.13663 9.54217 8.97434 9.34195 8.97434H8.85767C9.01627 8.76348 9.13011 8.51712 9.18468 8.24942H9.34195C9.54217 8.24942 9.70441 8.08714 9.70441 7.88696C9.70441 7.68679 9.54217 7.5245 9.34195 7.5245H8.85767C9.01627 7.31364 9.13011 7.06728 9.18468 6.79958H9.34195C9.54217 6.79958 9.70441 6.6373 9.70441 6.43712C9.70441 6.23695 9.54217 6.07466 9.34195 6.07466H8.85767C9.01627 5.8638 9.13011 5.61744 9.18468 5.34974H9.34195C9.54217 5.34974 9.70441 5.18746 9.70441 4.98728C9.70441 4.78711 9.54217 4.62482 9.34195 4.62482H2.09253C1.89231 4.62482 1.73007 4.78711 1.73007 4.98728C1.73007 5.18746 1.89231 5.34974 2.09253 5.34974H2.24984C2.30441 5.61744 2.41816 5.86384 2.57686 6.07466H2.09253C1.89231 6.07466 1.73007 6.23695 1.73007 6.43712C1.73007 6.6373 1.89231 6.79958 2.09253 6.79958H2.24984C2.30441 7.06728 2.41816 7.31368 2.57686 7.5245H2.09253C1.89231 7.5245 1.73007 7.68679 1.73007 7.88696C1.73007 8.08714 1.89231 8.24942 2.09253 8.24942H2.24984C2.30441 8.51712 2.41816 8.76352 2.57686 8.97434H2.09253C1.89231 8.97434 1.73007 9.13663 1.73007 9.3368C1.73007 9.53698 1.89231 9.69926 2.09253 9.69926H2.24984C2.30441 9.96696 2.41816 10.2134 2.57686 10.4242H1.36246C1.16224 10.4242 1 10.5865 1 10.7866V13.6864C1 13.8866 1.16224 14.0489 1.36246 14.0489H19.2534C19.4536 14.0489 19.6159 13.8866 19.6159 13.6864C19.6159 13.4862 19.4536 13.324 19.2534 13.324H1.72492V11.1491H22.2752V13.324H20.7033C20.5031 13.324 20.3408 13.4862 20.3408 13.6864C20.3408 13.8866 20.5031 14.0489 20.7033 14.0489H22.1491V21.5234C21.6034 21.4706 21.2892 21.2972 20.9348 21.1017C20.4859 20.8541 19.9771 20.5733 19.0078 20.5733C18.0386 20.5733 17.5297 20.8541 17.0809 21.1017C16.6547 21.3369 16.2866 21.5399 15.504 21.5399C14.7214 21.5399 14.3533 21.3369 13.9271 21.1017C13.4782 20.8541 12.9694 20.5733 12 20.5733C11.0307 20.5733 10.5219 20.8541 10.0729 21.1017C9.64678 21.3369 9.27864 21.5399 8.49605 21.5399C7.7135 21.5399 7.34536 21.3369 6.91924 21.1017C6.47035 20.8541 5.96158 20.5733 4.9923 20.5733C4.02302 20.5733 3.5142 20.8541 3.06531 21.1017C2.96434 21.1574 2.8666 21.2111 2.76585 21.2609C2.51275 21.3861 2.24106 21.4856 1.85092 21.5234V15.1363C1.85092 14.9361 1.68867 14.7738 1.48846 14.7738C1.28824 14.7738 1.126 14.9361 1.126 15.1363V21.9024C1.126 22.1026 1.28824 22.2649 1.48846 22.2649C1.93632 22.2649 2.28511 22.2046 2.57588 22.1157V23.3523C2.57588 23.5524 2.73812 23.7147 2.93834 23.7147C3.13856 23.7147 3.3008 23.5524 3.3008 23.3523V21.7993C3.33953 21.7782 3.37782 21.7573 3.41548 21.7365C3.84165 21.5014 4.20975 21.2983 4.9923 21.2983C5.77485 21.2983 6.14294 21.5014 6.56902 21.7364C7.0179 21.9841 7.52668 22.2649 8.496 22.2649C9.46537 22.2649 9.97415 21.9841 10.4231 21.7365C10.8492 21.5014 11.2174 21.2983 12 21.2983C12.7826 21.2983 13.1507 21.5014 13.5769 21.7365C14.0258 21.9842 14.5346 22.2649 15.504 22.2649C16.4733 22.2649 16.9821 21.9841 17.431 21.7365C17.8571 21.5014 18.2252 21.2983 19.0078 21.2983C19.7903 21.2983 20.1584 21.5014 20.5845 21.7364C20.6222 21.7572 20.6604 21.7782 20.6992 21.7993V23.3523C20.6992 23.5525 20.8614 23.7148 21.0616 23.7148C21.2618 23.7148 21.4241 23.5525 21.4241 23.3523V22.1156C21.7148 22.2045 22.0636 22.2649 22.5115 22.2649C22.7117 22.2649 22.874 22.1026 22.874 21.9024V13.9609C22.951 13.8944 23 13.7963 23 13.6865V10.7867C23 10.5865 22.8378 10.4242 22.6376 10.4242ZM7.40876 10.4242H4.02568C3.55315 10.4242 3.15023 10.1212 3.00063 9.69931H8.4338C8.28416 10.1211 7.88124 10.4242 7.40876 10.4242ZM7.40876 8.97434H4.02568C3.55315 8.97434 3.15023 8.67129 3.00063 8.24942H8.4338C8.28416 8.67124 7.88124 8.97434 7.40876 8.97434ZM7.40876 7.52446H4.02568C3.55315 7.52446 3.15023 7.2214 3.00063 6.79954H8.4338C8.28416 7.22136 7.88124 7.52446 7.40876 7.52446ZM7.40876 6.07457H4.02568C3.55315 6.07457 3.15023 5.77152 3.00063 5.34965H8.4338C8.28416 5.77152 7.88124 6.07457 7.40876 6.07457ZM16.5913 2.44988C18.6676 2.44988 20.3774 4.04537 20.5612 6.07457H12.6214C12.8052 4.04537 14.515 2.44988 16.5913 2.44988ZM21.0617 10.4242H12.1208V6.79954H21.0617V10.4242Z" stroke="white"/>
</svg>
