<svg width="38" height="38" viewBox="0 0 38 38" fill="none" xmlns="http://www.w3.org/2000/svg">
<path d="M36.4167 34.8333H34.8333C34.8333 32.4995 33.5651 30.457 31.6809 29.3582C34.7193 26.1535 36.4167 21.9355 36.4167 17.4167C36.4167 7.81375 28.6029 0 19 0C9.39708 0 1.58333 7.81375 1.58333 17.4167C1.58333 21.9339 3.28067 26.1519 6.32067 29.3582C4.4365 30.457 3.16667 32.4995 3.16667 34.8333H1.58333C0.70775 34.8333 0 35.5427 0 36.4167C0 37.2907 0.70775 38 1.58333 38H36.4167C37.2923 38 38 37.2907 38 36.4167C38 35.5427 37.2923 34.8333 36.4167 34.8333ZM19 3.16667C26.8581 3.16667 33.25 9.56017 33.25 17.4167C33.25 21.7693 31.3231 25.7798 27.9474 28.5H20.5833V25.3333H23.1816C24.5163 25.3333 25.2795 23.8086 24.4783 22.7414L22.8602 20.5833H23.3272C24.4862 20.5833 25.1465 19.2613 24.4514 18.3334L20.6293 13.2367C19.8455 12.1917 18.278 12.1917 17.4942 13.2367L13.6721 18.3334C12.977 19.2597 13.6388 20.5833 14.7963 20.5833H15.1414L13.5233 22.7414C12.7221 23.8102 13.4837 25.3333 14.82 25.3333H17.4183V28.5H10.0526C6.67692 25.7782 4.75158 21.7677 4.75158 17.4167C4.75 9.56017 11.1419 3.16667 19 3.16667ZM9.5 31.6667H28.5C30.2464 31.6667 31.6667 33.0869 31.6667 34.8333H6.33333C6.33333 33.0869 7.75358 31.6667 9.5 31.6667ZM20.5833 8.70833C20.5833 7.39733 21.6473 6.33333 22.9583 6.33333C24.2693 6.33333 25.3333 7.39733 25.3333 8.70833C25.3333 10.0193 24.2693 11.0833 22.9583 11.0833C21.6473 11.0833 20.5833 10.0193 20.5833 8.70833ZM26.9167 16.625C26.9167 15.314 27.9807 14.25 29.2917 14.25C30.6027 14.25 31.6667 15.314 31.6667 16.625C31.6667 17.936 30.6027 19 29.2917 19C27.9807 19 26.9167 17.936 26.9167 16.625ZM10.2917 15.8333C8.98067 15.8333 7.91667 14.7693 7.91667 13.4583C7.91667 12.1473 8.98067 11.0833 10.2917 11.0833C11.6027 11.0833 12.6667 12.1473 12.6667 13.4583C12.6667 14.7693 11.6027 15.8333 10.2917 15.8333Z" fill="black"/>
</svg>
