<svg width="24" height="24" viewBox="0 0 24 24" fill="none" xmlns="http://www.w3.org/2000/svg">
<path d="M23 13C22.448 13 22 13.447 22 14V17H21V12C21 11.447 20.552 11 20 11C19.448 11 19 11.447 19 12V17H18V13.5C18 12.947 17.552 12.5 17 12.5C16.448 12.5 16 12.947 16 13.5V19.001L14.683 17.769C14.281 17.392 13.647 17.413 13.269 17.817C12.892 18.22 12.913 18.853 13.316 19.23C13.316 19.23 17.611 23.21 17.685 23.25C18.34 23.718 19.135 24 19.999 24C22.205 24 23.999 22.206 23.999 20V14C23.999 13.447 23.552 13 23 13ZM20 22C18.897 22 18 21.103 18 20V19H22V20C22 21.103 21.103 22 20 22ZM5 10.5C5 13.532 7.467 16 10.5 16C13.533 16 16 13.532 16 10.5C16 7.468 13.533 5 10.5 5C7.467 5 5 7.468 5 10.5ZM14 10.5C14 12.43 12.43 14 10.5 14C8.57 14 7 12.43 7 10.5C7 8.57 8.57 7 10.5 7C12.43 7 14 8.57 14 10.5ZM10.5 9C11.328 9 12 9.672 12 10.5C12 11.328 11.328 12 10.5 12C9.672 12 9 11.328 9 10.5C9 9.672 9.672 9 10.5 9ZM10.999 20.039C10.972 20.573 10.53 20.987 10.001 20.987C9.983 20.987 9.966 20.987 9.948 20.987C4.37 20.697 0 16.091 0 10.5C0 4.71 4.71 0 10.5 0C15.227 0 19.394 3.182 20.632 7.737C20.777 8.27 20.463 8.82 19.929 8.965C19.399 9.113 18.847 8.796 18.702 8.263C17.699 4.575 14.326 2 10.499 2C5.813 2 2 5.813 2 10.5C2 15.026 5.537 18.755 10.052 18.988C10.604 19.017 11.028 19.487 10.999 20.039Z" fill="white"/>
</svg>
