<svg width="24" height="24" viewBox="0 0 24 24" fill="none" xmlns="http://www.w3.org/2000/svg">
<path d="M21.6818 1.47348C19.9837 0.877518 18.3036 0.460546 16.6865 0.23356C15.0724 0.00657535 13.3412 -0.0554206 11.5391 0.0495725C9.89096 0.144566 8.52486 1.37949 8.29084 2.98638L7.93282 5.44622C7.7278 5.46922 7.52079 5.49522 7.31377 5.52421C5.69765 5.7512 4.01752 6.16817 2.3184 6.76413C0.761279 7.3101 -0.199793 8.87399 0.0352248 10.4819L1.0793 17.6614C1.53834 20.8192 5.91767 22.8671 8.48786 23.807C8.84188 23.936 9.20891 24 9.57094 24C10.211 24 10.838 23.802 11.3631 23.419C12.6212 22.5021 14.9043 20.6512 16.0554 18.5664C16.1044 18.4774 16.1234 18.3804 16.1164 18.2864C18.7146 17.2634 22.4959 15.2926 22.9209 12.3698L23.965 5.18924C24.199 3.58134 23.239 2.01744 21.6808 1.47148L21.6818 1.47348ZM10.775 22.6121C10.223 23.0151 9.49593 23.1111 8.83188 22.8681C6.93174 22.1731 2.46841 20.2612 2.06938 17.5184L1.0253 10.3389C0.860287 9.20197 1.54334 8.09604 2.65042 7.70807C4.28654 7.13411 5.90266 6.73313 7.45378 6.51515C7.56379 6.49915 7.6748 6.48515 7.78481 6.47115L7.24677 10.1669C7.18976 10.5579 7.19576 10.9489 7.25277 11.3368C6.80173 10.7359 6.20269 10.3849 5.58564 10.4749C4.83158 10.5839 4.28554 11.3128 4.08153 12.2688C4.01352 12.5868 4.28454 12.8737 4.60557 12.8277L7.18576 12.4588C7.31477 12.4408 7.42078 12.3718 7.49178 12.2778C7.7608 13.0367 8.20184 13.7747 8.73288 14.4686C8.67587 14.4766 8.61787 14.4866 8.55886 14.4996C6.92574 14.8616 5.75665 16.1665 5.30062 17.7834C5.16461 18.2654 5.71165 18.6504 6.12868 18.3714C7.61079 17.3804 9.33292 16.7755 10.889 16.7315C11.4931 17.2634 12.0901 17.7284 12.6072 18.1074C13.1472 18.5024 13.7893 18.7063 14.4393 18.7063C14.5623 18.7063 14.6863 18.6983 14.8103 18.6833C13.6762 20.3572 11.8401 21.8341 10.775 22.6121ZM22.9759 5.04724L21.9319 12.2278C21.5328 14.9706 17.0705 16.8825 15.1704 17.5774C14.5053 17.8214 13.7683 17.7184 13.1992 17.3014C11.5741 16.1125 7.83781 13.0517 8.23684 10.3099L9.28092 3.13037C9.44693 1.99145 10.421 1.1165 11.5971 1.04751C12.1451 1.01551 12.6862 1.00051 13.2192 1.00051C14.3733 1.00051 15.4884 1.07451 16.5485 1.2235C18.0776 1.43848 19.7387 1.85045 21.3518 2.41642C22.4589 2.80439 23.142 3.91132 22.9759 5.04724ZM18.8316 11.2898C17.8356 12.6257 16.2944 13.4237 14.6503 13.1917C13.0072 12.9587 11.7531 11.7618 11.1711 10.2029C10.99 9.71894 11.5261 9.28097 11.9771 9.53395C14.0923 10.7209 15.8854 10.9759 18.2486 10.4269C18.7496 10.3109 19.1387 10.8779 18.8316 11.2898ZM19.7477 7.09811C19.8157 7.41509 19.5447 7.70307 19.2237 7.65707L16.6435 7.2881C16.3224 7.2421 16.1434 6.89012 16.2974 6.60514C16.7615 5.7442 17.4885 5.19523 18.2446 5.30423C18.9986 5.41322 19.5437 6.14217 19.7477 7.09811ZM11.4171 5.90819C11.8811 5.04724 12.6082 4.49828 13.3642 4.60727C14.1183 4.71627 14.6643 5.44522 14.8683 6.40116C14.9363 6.71914 14.6653 7.00612 14.3443 6.96012L11.7641 6.59114C11.4431 6.54515 11.2641 6.19317 11.4181 5.90819H11.4171Z" fill="#1C1C1C"/>
</svg>
