<svg width="24" height="24" viewBox="0 0 24 24" fill="none" xmlns="http://www.w3.org/2000/svg">
<path d="M19 4H17.899C17.434 1.721 15.414 0 13 0H11C8.586 0 6.565 1.721 6.101 4H5C2.243 4 0 6.243 0 9V19C0 21.757 2.243 24 5 24H19C21.757 24 24 21.757 24 19V9C24 6.243 21.757 4 19 4ZM11 2H13C14.304 2 15.415 2.836 15.828 4H8.172C8.585 2.836 9.696 2 11 2ZM5 6H19C20.654 6 22 7.346 22 9V10H19V9C19 8.448 18.553 8 18 8C17.447 8 17 8.448 17 9V10H7V9C7 8.448 6.553 8 6 8C5.447 8 5 8.448 5 9V10H2V9C2 7.346 3.346 6 5 6ZM19 22H5C3.346 22 2 20.654 2 19V12H5V13C5 13.552 5.447 14 6 14C6.553 14 7 13.552 7 13V12H17V13C17 13.552 17.447 14 18 14C18.553 14 19 13.552 19 13V12H22V19C22 20.654 20.654 22 19 22Z" fill="#1C1C1C"/>
</svg>
