<svg width="24" height="24" viewBox="0 0 24 24" fill="none" xmlns="http://www.w3.org/2000/svg">
<path d="M21.774 3.986L20.637 3.228L18.872 1.463C17.942 0.533 16.654 0 15.339 0H15.334L8.647 0.005C7.328 0.005 6.039 0.543 5.108 1.477L3.363 3.23L2.227 3.987C0.833 4.916 0 6.471 0 8.147V19.006C0 21.763 2.243 24.006 5 24.006H6C6.552 24.006 7 23.558 7 23.006C7 22.454 6.552 22.006 6 22.006H5C3.346 22.006 2 20.66 2 19.006V8.147C2 7.142 2.5 6.209 3.336 5.651L3.873 5.293L9.763 11.183L8.116 18.521C7.817 19.568 8.109 20.697 8.845 21.431L10.622 23.395C10.974 23.784 11.476 24.007 12 24.007H12.001C12.524 24.007 13.027 23.785 13.379 23.397L15.086 21.513C15.831 20.792 16.154 19.716 15.927 18.701L14.238 11.182L20.127 5.293L20.664 5.651C21.5 6.209 22 7.142 22 8.147V19.006C22 20.66 20.654 22.006 19 22.006H18C17.448 22.006 17 22.454 17 23.006C17 23.558 17.448 24.006 18 24.006H19C21.757 24.006 24 21.763 24 19.006V8.147C24 6.471 23.167 4.916 21.773 3.987L21.774 3.986ZM14.592 2L12 4.592L9.412 2.004L14.592 2ZM6.525 2.888C6.684 2.728 6.86 2.588 7.049 2.47L10.856 6.277L10.063 8.656L5.414 4.005L6.525 2.888ZM13.65 20.121L12.001 21.938L10.293 20.052C10.036 19.795 9.939 19.419 10.053 19.014L12 10.342L13.976 19.137C14.052 19.474 13.944 19.834 13.65 20.121ZM13.937 8.655L13.144 6.276L16.949 2.471C17.132 2.588 17.303 2.724 17.458 2.878L18.586 4.006L13.937 8.655Z" fill="#1C1C1C"/>
</svg>
