<svg width="28" height="29" viewBox="0 0 28 29" fill="none" xmlns="http://www.w3.org/2000/svg">
<path d="M1.16665 5.54308H4.35866C4.98866 7.86107 7.37845 9.22946 9.69644 8.59946C11.1852 8.19483 12.3482 7.03184 12.7528 5.54308H26.8333C27.4777 5.54308 28 5.02076 28 4.37643C28 3.7321 27.4777 3.20978 26.8333 3.20978H12.7528C12.1228 0.891735 9.73303 -0.476658 7.41504 0.153343C5.92628 0.557977 4.76329 1.72096 4.35866 3.20972H1.16665C0.522321 3.20972 0 3.73204 0 4.37637C0 5.0207 0.522321 5.54308 1.16665 5.54308Z" fill="black"/>
<path d="M26.8333 12.9628H23.6413C23.0126 10.6452 20.6241 9.27601 18.3065 9.9047C16.8165 10.3089 15.6525 11.4728 15.2483 12.9628H1.16665C0.522321 12.9628 0 13.4851 0 14.1295C0 14.7738 0.522321 15.2961 1.16665 15.2961H15.2483C15.8771 17.6138 18.2656 18.9829 20.5832 18.3543C22.0732 17.9501 23.2371 16.7861 23.6413 15.2961H26.8333C27.4777 15.2961 28 14.7738 28 14.1295C28 13.4851 27.4777 12.9628 26.8333 12.9628Z" fill="black"/>
<path d="M26.8333 22.7175H12.7528C12.1228 20.3995 9.73303 19.0312 7.41504 19.6612C5.92628 20.0658 4.76329 21.2288 4.35866 22.7175H1.16665C0.522321 22.7175 0 23.2399 0 23.8842C0 24.5285 0.522321 25.0508 1.16665 25.0508H4.35866C4.98866 27.3688 7.37845 28.7372 9.69644 28.1072C11.1852 27.7026 12.3482 26.5396 12.7528 25.0508H26.8333C27.4777 25.0508 28 24.5285 28 23.8842C28 23.2399 27.4777 22.7175 26.8333 22.7175Z" fill="black"/>
</svg>
