<svg width="20" height="17" viewBox="0 0 20 17" fill="none" xmlns="http://www.w3.org/2000/svg">
<path d="M17.5176 1.8845C17.0803 1.44557 16.5611 1.09739 15.9896 0.859828C15.4181 0.622271 14.8055 0.5 14.1869 0.5C13.5683 0.5 12.9558 0.622271 12.3843 0.859828C11.8128 1.09739 11.2935 1.44557 10.8562 1.8845L9.94862 2.795L9.04103 1.8845C8.15767 0.998314 6.95958 0.500459 5.71033 0.500459C4.46107 0.500459 3.26298 0.998314 2.37962 1.8845C1.49627 2.77069 1 3.97262 1 5.22587C1 6.47913 1.49627 7.68106 2.37962 8.56725L3.28722 9.47775L9.94862 16.1605L16.61 9.47775L17.5176 8.56725C17.9552 8.12852 18.3022 7.60762 18.539 7.0343C18.7758 6.46097 18.8977 5.84646 18.8977 5.22587C18.8977 4.60528 18.7758 3.99077 18.539 3.41745C18.3022 2.84412 17.9552 2.32322 17.5176 1.8845Z" fill="#FF0000" fill-opacity="0.4" stroke="white" stroke-linecap="round" stroke-linejoin="round"/>
</svg>
