<svg width="12" height="18" viewBox="0 0 12 18" fill="none" xmlns="http://www.w3.org/2000/svg">
<path d="M5.99996 17.3334C5.80551 17.3334 5.63885 17.2779 5.49996 17.1667C5.36107 17.0556 5.2569 16.9098 5.18746 16.7292C4.92357 15.9515 4.59024 15.2223 4.18746 14.5417C3.79857 13.8612 3.24996 13.0626 2.54163 12.1459C1.83329 11.2292 1.2569 10.3542 0.812459 9.52091C0.381904 8.68758 0.166626 7.68064 0.166626 6.50008C0.166626 4.87508 0.729126 3.50008 1.85413 2.37508C2.99301 1.23619 4.37496 0.666748 5.99996 0.666748C7.62496 0.666748 8.99996 1.23619 10.125 2.37508C11.2638 3.50008 11.8333 4.87508 11.8333 6.50008C11.8333 7.76397 11.5902 8.81953 11.1041 9.66675C10.6319 10.5001 10.0833 11.3265 9.45829 12.1459C8.70829 13.1459 8.13885 13.9792 7.74996 14.6459C7.37496 15.2987 7.06246 15.9931 6.81246 16.7292C6.74302 16.9237 6.6319 17.0765 6.47913 17.1876C6.34024 17.2848 6.18052 17.3334 5.99996 17.3334ZM5.99996 14.3542C6.23607 13.882 6.49996 13.4167 6.79163 12.9584C7.09718 12.5001 7.54163 11.889 8.12496 11.1251C8.72218 10.3473 9.20829 9.63202 9.58329 8.97925C9.97218 8.31258 10.1666 7.48619 10.1666 6.50008C10.1666 5.3473 9.7569 4.36814 8.93746 3.56258C8.1319 2.74314 7.15274 2.33341 5.99996 2.33341C4.84718 2.33341 3.86107 2.74314 3.04163 3.56258C2.23607 4.36814 1.83329 5.3473 1.83329 6.50008C1.83329 7.48619 2.02079 8.31258 2.39579 8.97925C2.78468 9.63202 3.27774 10.3473 3.87496 11.1251C4.45829 11.889 4.89579 12.5001 5.18746 12.9584C5.49302 13.4167 5.76385 13.882 5.99996 14.3542ZM5.99996 8.58341C6.58329 8.58341 7.07635 8.38203 7.47913 7.97925C7.8819 7.57647 8.08329 7.08341 8.08329 6.50008C8.08329 5.91675 7.8819 5.42369 7.47913 5.02091C7.07635 4.61814 6.58329 4.41675 5.99996 4.41675C5.41663 4.41675 4.92357 4.61814 4.52079 5.02091C4.11801 5.42369 3.91663 5.91675 3.91663 6.50008C3.91663 7.08341 4.11801 7.57647 4.52079 7.97925C4.92357 8.38203 5.41663 8.58341 5.99996 8.58341Z" fill="#1D1B20"/>
</svg>
