<svg width="24" height="24" viewBox="0 0 24 24" fill="none" xmlns="http://www.w3.org/2000/svg">
<path d="M23.0001 16C22.7348 16 22.4805 16.1054 22.293 16.2929C22.1054 16.4804 22.0001 16.7348 22.0001 17V19C22.0001 19.7957 21.684 20.5587 21.1214 21.1213C20.5588 21.6839 19.7957 22 19.0001 22H17.0001C16.7348 22 16.4805 22.1054 16.293 22.2929C16.1054 22.4804 16.0001 22.7348 16.0001 23C16.0001 23.2652 16.1054 23.5196 16.293 23.7071C16.4805 23.8946 16.7348 24 17.0001 24H19.0001C20.3257 23.9984 21.5965 23.4711 22.5338 22.5338C23.4712 21.5964 23.9985 20.3256 24.0001 19V17C24.0001 16.7348 23.8947 16.4804 23.7072 16.2929C23.5196 16.1054 23.2653 16 23.0001 16Z" fill="white"/>
<path d="M1 8.00001C1.26522 8.00001 1.51957 7.89465 1.70711 7.70711C1.89464 7.51958 2 7.26522 2 7V5C2 4.20435 2.31607 3.44129 2.87868 2.87868C3.44129 2.31607 4.20435 2 5 2H7C7.26522 2 7.51958 1.89464 7.70711 1.70711C7.89465 1.51957 8.00001 1.26522 8.00001 1C8.00001 0.734784 7.89465 0.48043 7.70711 0.292893C7.51958 0.105357 7.26522 0 7 0L5 0C3.67441 0.00158786 2.40356 0.528882 1.46622 1.46622C0.528882 2.40356 0.00158786 3.67441 0 5L0 7C0 7.26522 0.105357 7.51958 0.292893 7.70711C0.48043 7.89465 0.734784 8.00001 1 8.00001Z" fill="white"/>
<path d="M7.00002 22H5.00002C4.20437 22 3.44131 21.6839 2.8787 21.1213C2.31609 20.5587 2.00002 19.7957 2.00002 19V17C2.00002 16.7348 1.89466 16.4804 1.70712 16.2929C1.51959 16.1054 1.26523 16 1.00002 16C0.734799 16 0.480445 16.1054 0.292909 16.2929C0.105372 16.4804 1.52588e-05 16.7348 1.52588e-05 17L1.52588e-05 19C0.00160312 20.3256 0.528898 21.5964 1.46624 22.5338C2.40357 23.4711 3.67442 23.9984 5.00002 24H7.00002C7.26524 24 7.51959 23.8946 7.70713 23.7071C7.89466 23.5196 8.00002 23.2652 8.00002 23C8.00002 22.7348 7.89466 22.4804 7.70713 22.2929C7.51959 22.1054 7.26524 22 7.00002 22Z" fill="white"/>
<path d="M19.0001 0H17.0001C16.7348 0 16.4805 0.105357 16.293 0.292893C16.1054 0.48043 16.0001 0.734784 16.0001 1C16.0001 1.26522 16.1054 1.51957 16.293 1.70711C16.4805 1.89464 16.7348 2 17.0001 2H19.0001C19.7957 2 20.5588 2.31607 21.1214 2.87868C21.684 3.44129 22.0001 4.20435 22.0001 5V7C22.0001 7.26522 22.1054 7.51958 22.293 7.70711C22.4805 7.89465 22.7348 8.00001 23.0001 8.00001C23.2653 8.00001 23.5196 7.89465 23.7072 7.70711C23.8947 7.51958 24.0001 7.26522 24.0001 7V5C23.9985 3.67441 23.4712 2.40356 22.5338 1.46622C21.5965 0.528882 20.3257 0.00158786 19.0001 0Z" fill="white"/>
<path d="M12 11C12.7911 11 13.5645 10.7654 14.2223 10.3259C14.8801 9.88636 15.3928 9.26164 15.6955 8.53074C15.9983 7.79983 16.0775 6.99557 15.9231 6.21964C15.7688 5.44372 15.3878 4.73099 14.8284 4.17158C14.269 3.61216 13.5563 3.2312 12.7804 3.07686C12.0044 2.92252 11.2002 3.00173 10.4693 3.30448C9.73836 3.60723 9.11365 4.11992 8.67412 4.77772C8.2346 5.43552 8 6.20888 8 7C8 8.06087 8.42143 9.07829 9.17157 9.82843C9.92172 10.5786 10.9391 11 12 11ZM12 5C12.3956 5 12.7822 5.1173 13.1111 5.33706C13.44 5.55683 13.6964 5.86918 13.8478 6.23464C13.9991 6.60009 14.0387 7.00222 13.9616 7.39019C13.8844 7.77815 13.6939 8.13451 13.4142 8.41422C13.1345 8.69392 12.7781 8.88441 12.3902 8.96158C12.0022 9.03875 11.6001 8.99914 11.2346 8.84777C10.8692 8.69639 10.5568 8.44004 10.3371 8.11115C10.1173 7.78225 10 7.39557 10 7C10 6.46957 10.2107 5.96086 10.5858 5.58579C10.9609 5.21072 11.4696 5 12 5Z" fill="white"/>
<path d="M18 20C18.2652 20 18.5196 19.8946 18.7071 19.7071C18.8947 19.5196 19 19.2652 19 19C18.9984 17.4092 18.3658 15.884 17.2409 14.7591C16.116 13.6342 14.5908 13.0016 13 13H11C9.40919 13.0016 7.88399 13.6342 6.75912 14.7591C5.63424 15.884 5.00159 17.4092 5 19C5 19.2652 5.10536 19.5196 5.29289 19.7071C5.48043 19.8946 5.73478 20 6 20C6.26522 20 6.51957 19.8946 6.70711 19.7071C6.89464 19.5196 7 19.2652 7 19C7 17.9391 7.42143 16.9217 8.17158 16.1716C8.92172 15.4214 9.93914 15 11 15H13C14.0609 15 15.0783 15.4214 15.8284 16.1716C16.5786 16.9217 17 17.9391 17 19C17 19.2652 17.1054 19.5196 17.2929 19.7071C17.4804 19.8946 17.7348 20 18 20Z" fill="white"/>
</svg>
