<svg width="24" height="24" viewBox="0 0 24 24" fill="none" xmlns="http://www.w3.org/2000/svg">
<path d="M0.5 6.5C0.5 5.119 1.619 4 3 4C4.381 4 5.5 5.119 5.5 6.5C5.5 7.881 4.381 9 3 9C1.619 9 0.5 7.881 0.5 6.5ZM9 20.5V23C9 23.552 8.552 24 8 24C7.448 24 7 23.552 7 23V20.5C7 20.224 6.776 20 6.5 20C6.5 20 2.965 20 2.948 19.999C1.318 19.971 0 18.637 0 17V13C0 11.346 1.346 10 3 10C4.654 10 6 11.346 6 13V18H6.5C7.878 18 9 19.122 9 20.5ZM4 18V13C4 12.449 3.551 12 3 12C2.449 12 2 12.449 2 13V17C2 17.551 2.449 18 3 18H4ZM21 9C22.381 9 23.5 7.881 23.5 6.5C23.5 5.119 22.381 4 21 4C19.619 4 18.5 5.119 18.5 6.5C18.5 7.881 19.619 9 21 9ZM24 13V17C24 18.637 22.682 19.971 21.052 19.999C21.035 19.999 17.5 20 17.5 20C17.224 20 17 20.224 17 20.5V23C17 23.552 16.552 24 16 24C15.448 24 15 23.552 15 23V20.5C15 19.122 16.122 18 17.5 18H18V13C18 11.346 19.346 10 21 10C22.654 10 24 11.346 24 13ZM22 13C22 12.449 21.551 12 21 12C20.449 12 20 12.449 20 13V18H21C21.551 18 22 17.551 22 17V13ZM16 14C16 13.448 15.552 13 15 13H9C8.448 13 8 13.448 8 14C8 14.552 8.448 15 9 15H15C15.552 15 16 14.552 16 14ZM7 5.048V2.952C7 1.324 8.324 0 9.952 0H14.048C15.676 0 17 1.324 17 2.952V5.048C17 6.581 15.825 7.845 14.328 7.987L12.938 9.138C12.666 9.381 12.316 9.503 11.961 9.503C11.598 9.503 11.232 9.375 10.94 9.115L9.561 7.974C8.117 7.782 7 6.543 7 5.048ZM9 5.048C9 5.573 9.427 6 9.952 6C10.185 6 10.41 6.081 10.59 6.229L11.953 7.357L13.315 6.229C13.494 6.08 13.72 5.999 13.953 5.999H14.049C14.574 5.999 15.001 5.572 15.001 5.047V2.951C15.001 2.426 14.574 1.999 14.049 1.999H9.953C9.428 1.999 9.001 2.426 9.001 2.951V5.047L9 5.048ZM4 22H1C0.448 22 0 22.448 0 23C0 23.552 0.448 24 1 24H4C4.552 24 5 23.552 5 23C5 22.448 4.552 22 4 22ZM23 22H20C19.448 22 19 22.448 19 23C19 23.552 19.448 24 20 24H23C23.552 24 24 23.552 24 23C24 22.448 23.552 22 23 22Z" fill="white"/>
</svg>
