<svg width="24" height="24" viewBox="0 0 24 24" fill="none" xmlns="http://www.w3.org/2000/svg">
<path d="M24 18.9988C24.0022 16.8865 23.5841 14.7949 22.77 12.8458L22.449 12.0758C22.0706 11.1635 21.43 10.3841 20.6082 9.83635C19.7865 9.28857 18.8206 8.99706 17.833 8.99876H14.167C13.1794 8.99706 12.2135 9.28857 11.3918 9.83635C10.57 10.3841 9.92936 11.1635 9.551 12.0758L9.231 12.8448C8.331 15.4868 6.531 20.4208 10 21.8268V21.9988C10 22.5292 10.2107 23.0379 10.5858 23.413C10.9609 23.788 11.4696 23.9988 12 23.9988C12.5304 23.9988 13.0391 23.788 13.4142 23.413C13.7893 23.0379 14 22.5292 14 21.9988H18C18 22.5292 18.2107 23.0379 18.5858 23.413C18.9609 23.788 19.4696 23.9988 20 23.9988C20.5304 23.9988 21.0391 23.788 21.4142 23.413C21.7893 23.0379 22 22.5292 22 21.9988V21.8268C22.5848 21.62 23.0912 21.237 23.4494 20.7306C23.8075 20.2241 23.9999 19.6191 24 18.9988ZM11.4 12.8448C11.627 12.298 12.011 11.8307 12.5036 11.5022C12.9961 11.1736 13.5749 10.9984 14.167 10.9988H17.833C18.4256 10.9978 19.0051 11.1727 19.4982 11.5013C19.9913 11.8299 20.3758 12.2975 20.603 12.8448L20.923 13.6148C20.977 13.7418 21.023 13.8698 21.077 13.9988H10.924C10.973 13.8698 11.024 13.7418 11.077 13.6138L11.4 12.8448ZM21 19.9988H11C9.243 19.8288 10.23 17.1298 10.324 15.9988H12V16.9988C12 17.264 12.1054 17.5183 12.2929 17.7059C12.4804 17.8934 12.7348 17.9988 13 17.9988C13.2652 17.9988 13.5196 17.8934 13.7071 17.7059C13.8946 17.5183 14 17.264 14 16.9988V15.9988H18V16.9988C18 17.264 18.1053 17.5183 18.2929 17.7059C18.4804 17.8934 18.7348 17.9988 19 17.9988C19.2652 17.9988 19.5196 17.8934 19.7071 17.7059C19.8946 17.5183 20 17.264 20 16.9988V15.9988H21.676C21.769 17.1278 22.757 19.8298 21 19.9988ZM6.5 10.9988H4V6.26376C4 6.17476 4 6.08676 4.009 5.99876H9V6.99876C9 7.26398 9.10535 7.51833 9.29289 7.70587C9.48043 7.8934 9.73478 7.99876 10 7.99876C10.2652 7.99876 10.5196 7.8934 10.7071 7.70587C10.8946 7.51833 11 7.26398 11 6.99876V5.99876H15.991C15.996 6.08676 16 6.17476 16 6.26376V6.99876C16 7.26398 16.1054 7.51833 16.2929 7.70587C16.4804 7.8934 16.7348 7.99876 17 7.99876C17.2652 7.99876 17.5196 7.8934 17.7071 7.70587C17.8946 7.51833 18 7.26398 18 6.99876V6.26376C18.0092 4.96095 17.5903 3.69116 16.8077 2.64961C16.025 1.60805 14.9219 0.852376 13.668 0.498762C11.2679 -0.166254 8.73212 -0.166254 6.332 0.498762C5.07806 0.852376 3.97498 1.60805 3.19232 2.64961C2.40966 3.69116 1.99075 4.96095 2 6.26376V8.99876C1.46957 8.99876 0.960859 9.20947 0.585786 9.58455C0.210714 9.95962 0 10.4683 0 10.9988C0 11.5292 0.210714 12.0379 0.585786 12.413C0.960859 12.788 1.46957 12.9988 2 12.9988V15.9988C2.00076 16.619 2.19338 17.2239 2.55144 17.7304C2.90951 18.2369 3.41549 18.6202 4 18.8278V19.9988C4 20.264 4.10536 20.5183 4.29289 20.7059C4.48043 20.8934 4.73478 20.9988 5 20.9988C5.26521 20.9988 5.51957 20.8934 5.7071 20.7059C5.89464 20.5183 6 20.264 6 19.9988V17.9988C6 17.7335 5.89464 17.4792 5.7071 17.2916C5.51957 17.1041 5.26521 16.9988 5 16.9988C4.73478 16.9988 4.48043 16.8934 4.29289 16.7059C4.10536 16.5183 4 16.264 4 15.9988V12.9988H6.5C6.76521 12.9988 7.01957 12.8934 7.2071 12.7059C7.39464 12.5183 7.5 12.264 7.5 11.9988C7.5 11.7335 7.39464 11.4792 7.2071 11.2917C7.01957 11.1041 6.76521 10.9988 6.5 10.9988ZM6.855 2.43076C8.91252 1.85777 11.0875 1.85777 13.145 2.43076C14.0328 2.67547 14.8026 3.2322 15.313 3.99876H4.687C5.1974 3.2322 5.96717 2.67547 6.855 2.43076Z" fill="white"/>
</svg>
